<svg xmlns="http://www.w3.org/2000/svg" fill="#000000" width="72" height="53"><rect id="backgroundrect" width="100%" height="100%" x="0" y="0" fill="none" stroke="none" class="" style=""/>
  
<g class="currentLayer" style=""><title>Layer 1</title><path d="M35.10901698211861,15.008326220000036 L38.49098298211861,15.008326220000036 L37.99514848211861,14.016657220000036 L35.604851482118605,14.016657220000036 L35.10901698211861,15.008326220000036 L35.10901698211861,15.008326220000036 zM34.3100586921186,16.008326220000036 C34.30310572211861,16.008472020000035 34.296140682118605,16.008472520000037 34.28916804211861,16.008326220000036 L33.29999998211861,16.008326220000036 C33.023857612118604,16.008326220000036 32.79999998211861,15.784468620000037 32.79999998211861,15.508326220000036 C32.79999998211861,15.232183820000035 33.023857612118604,15.008326220000036 33.29999998211861,15.008326220000036 L33.9909829921186,15.008326220000036 L34.48681748211861,14.016657220000036 L29.299999982118607,14.016657220000036 C27.919288112118608,14.016657220000036 26.799999982118607,12.897369120000036 26.799999982118607,11.516657220000036 L26.799999982118607,2.5083262200000362 C26.818939752118606,1.1100609500000367 27.930630362118606,0.008926470000037767 29.29972262211861,0.008326490000037268 L44.2997824821186,3.552713678800501e-14 C45.68158998211861,-2.399999630142702e-7 46.80087808211861,1.1192878900000363 46.80087808211861,2.5000483500000357 L46.800001782118606,11.516657220000036 C46.800001782118606,12.897369120000036 45.68071368211861,14.016657220000036 44.300001782118606,14.016657220000036 L39.1131824821186,14.016657220000036 L39.609016982118604,15.008326220000036 L40.29999998211861,15.008326220000036 C40.576142382118604,15.008326220000036 40.79999998211861,15.232183820000035 40.79999998211861,15.508326220000036 C40.79999998211861,15.784468620000037 40.576142382118604,16.008326220000036 40.29999998211861,16.008326220000036 L39.31083198211861,16.008326220000036 C39.30385928211861,16.008472520000037 39.29689428211861,16.008472020000035 39.289941282118605,16.008326220000036 L34.31005870211861,16.008326220000036 L34.3100586921186,16.008326220000036 zM38.3910475821186,13.016657220000036 L44.300001782118606,13.016657220000036 C45.128428982118606,13.016657220000036 45.800001782118606,12.345084320000037 45.800001782118606,11.516608620000037 L45.80087808211861,2.499999760000037 C45.80087808211861,1.6715726400000364 45.12930518211861,0.999999760000037 44.30087808211861,0.999999760000037 L29.30021929211861,1.0083263600000372 C28.472048942118608,1.0086893000000394 27.800876642118606,1.680155800000037 27.800876642118606,2.5083262200000362 C27.800876642118606,2.514001440000037 27.800665872118607,4.6806681100000365 27.800244332118606,9.008326220000036 L45.79999998211861,9.008326220000036 L45.79999998211861,10.008326220000036 L27.800146922118607,10.008326220000036 L27.799999982118607,11.516657220000036 C27.799999982118607,12.345084320000037 28.47157286211861,13.016657220000036 29.299999982118607,13.016657220000036 L35.20895238211861,13.016657220000036 C35.268558282118605,13.005572920000038 35.33045538211861,13.005234720000036 35.391599982118606,13.016657220000036 L38.208399882118606,13.016657220000036 C38.269544582118606,13.005234720000036 38.33144168211861,13.005572920000038 38.3910475821186,13.016657220000036 L38.3910475821186,13.016657220000036 zM36.29999998211861,12.008326220000036 C36.02385758211861,12.008326220000036 35.79999998211861,11.784468620000036 35.79999998211861,11.508326220000036 C35.79999998211861,11.232183820000037 36.02385758211861,11.008326220000036 36.29999998211861,11.008326220000036 L37.29999998211861,11.008326220000036 C37.576142382118604,11.008326220000036 37.79999998211861,11.232183820000037 37.79999998211861,11.508326220000036 C37.79999998211861,11.784468620000036 37.576142382118604,12.008326220000036 37.29999998211861,12.008326220000036 L36.29999998211861,12.008326220000036 z" id="svg_1" class=""/><path d="M54.3632657129569,41.512902008974805 L57.74523171295691,41.512902008974805 L57.24939721295691,40.5212330089748 L54.8591002129569,40.5212330089748 L54.3632657129569,41.512902008974805 L54.3632657129569,41.512902008974805 zM53.56430742295691,42.512902008974805 C53.55735445295691,42.5130478089748 53.5503894129569,42.51304830897481 53.5434167729569,42.512902008974805 L52.554248712956905,42.512902008974805 C52.2781063429569,42.512902008974805 52.054248712956905,42.2890444089748 52.054248712956905,42.0129020089748 C52.054248712956905,41.73675960897479 52.2781063429569,41.512902008974805 52.554248712956905,41.512902008974805 L53.24523172295691,41.512902008974805 L53.74106621295691,40.5212330089748 L48.554248712956905,40.5212330089748 C47.173536842956906,40.5212330089748 46.054248712956905,39.4019449089748 46.054248712956905,38.0212330089748 L46.054248712956905,29.012902008974798 C46.07318848295691,27.6146367389748 47.184879092956905,26.513502258974796 48.55397135295691,26.5129022789748 L63.5540312129569,26.504575788974797 C64.93583871295691,26.5045755489748 66.0551268129569,27.6238636789748 66.0551268129569,29.0046241389748 L66.05425051295691,38.0212330089748 C66.05425051295691,39.4019449089748 64.9349624129569,40.5212330089748 63.554250512956905,40.5212330089748 L58.3674312129569,40.5212330089748 L58.8632657129569,41.512902008974805 L59.554248712956905,41.512902008974805 C59.8303911129569,41.512902008974805 60.054248712956905,41.73675960897479 60.054248712956905,42.0129020089748 C60.054248712956905,42.2890444089748 59.8303911129569,42.512902008974805 59.554248712956905,42.512902008974805 L58.565080712956906,42.512902008974805 C58.55810801295691,42.51304830897481 58.551143012956906,42.5130478089748 58.5441900129569,42.512902008974805 L53.56430743295691,42.512902008974805 L53.56430742295691,42.512902008974805 zM57.6452963129569,39.5212330089748 L63.554250512956905,39.5212330089748 C64.3826777129569,39.5212330089748 65.05425051295691,38.8496601089748 65.05425051295691,38.0211844089748 L65.0551268129569,29.0045755489748 C65.0551268129569,28.1761484289748 64.3835539129569,27.5045755489748 63.55512681295691,27.5045755489748 L48.554468022956904,27.512902148974803 C47.7262976729569,27.513265088974798 47.05512537295691,28.1847315889748 47.05512537295691,29.012902008974798 C47.05512537295691,29.0185772289748 47.054914602956906,31.185243898974797 47.05449306295691,35.512902008974805 L65.0542487129569,35.512902008974805 L65.0542487129569,36.512902008974805 L47.05439565295691,36.512902008974805 L47.054248712956905,38.0212330089748 C47.054248712956905,38.8496601089748 47.725821592956905,39.5212330089748 48.554248712956905,39.5212330089748 L54.46320111295691,39.5212330089748 C54.5228070129569,39.5101487089748 54.584704112956906,39.5098105089748 54.645848712956905,39.5212330089748 L57.462648612956905,39.5212330089748 C57.523793312956904,39.5098105089748 57.58569041295691,39.5101487089748 57.6452963129569,39.5212330089748 L57.6452963129569,39.5212330089748 zM55.554248712956905,38.512902008974805 C55.27810631295691,38.512902008974805 55.054248712956905,38.2890444089748 55.054248712956905,38.0129020089748 C55.054248712956905,37.73675960897481 55.27810631295691,37.512902008974805 55.554248712956905,37.512902008974805 L56.554248712956905,37.512902008974805 C56.8303911129569,37.512902008974805 57.054248712956905,37.73675960897481 57.054248712956905,38.0129020089748 C57.054248712956905,38.2890444089748 56.8303911129569,38.512902008974805 56.554248712956905,38.512902008974805 L55.554248712956905,38.512902008974805 z" class="" id="svg_10"/><path d="M15.393983182708737,41.152117418730505 L18.775949182708743,41.152117418730505 L18.280114682708742,40.1604484187305 L15.889817682708738,40.1604484187305 L15.393983182708737,41.152117418730505 L15.393983182708737,41.152117418730505 zM14.595024892708736,42.152117418730505 C14.588071922708748,42.1522632187305 14.581106882708738,42.15226371873051 14.574134242708737,42.152117418730505 L13.58496618270874,42.152117418730505 C13.308823812708745,42.152117418730505 13.08496618270874,41.92825981873051 13.08496618270874,41.652117418730505 C13.08496618270874,41.3759750187305 13.308823812708745,41.152117418730505 13.58496618270874,41.152117418730505 L14.275949192708737,41.152117418730505 L14.771783682708744,40.1604484187305 L9.58496618270874,40.1604484187305 C8.204254312708741,40.1604484187305 7.084966182708737,39.041160318730505 7.084966182708737,37.6604484187305 L7.084966182708737,28.652117418730505 C7.103905952708736,27.253852148730505 8.215596562708747,26.152717668730503 9.584688822708742,26.152117688730506 L24.584748682708735,26.143791198730504 C25.966556182708743,26.143790958730506 27.08584428270875,27.263079088730507 27.08584428270875,28.643839548730504 L27.084967982708744,37.6604484187305 C27.084967982708744,39.041160318730505 25.96567988270874,40.1604484187305 24.58496798270874,40.1604484187305 L19.398148682708737,40.1604484187305 L19.893983182708737,41.152117418730505 L20.58496618270874,41.152117418730505 C20.86110858270874,41.152117418730505 21.08496618270874,41.3759750187305 21.08496618270874,41.652117418730505 C21.08496618270874,41.92825981873051 20.86110858270874,42.152117418730505 20.58496618270874,42.152117418730505 L19.59579818270874,42.152117418730505 C19.588825482708742,42.15226371873051 19.58186048270874,42.1522632187305 19.57490748270874,42.152117418730505 L14.595024902708744,42.152117418730505 L14.595024892708736,42.152117418730505 zM18.676013782708736,39.1604484187305 L24.58496798270874,39.1604484187305 C25.41339518270874,39.1604484187305 26.084967982708744,38.48887551873051 26.084967982708744,37.660399818730504 L26.08584428270875,28.643790958730506 C26.08584428270875,27.815363838730505 25.41427138270874,27.143790958730506 24.58584428270874,27.143790958730506 L9.585185492708739,27.152117558730506 C8.757015142708738,27.152480498730505 8.08584284270874,27.823946998730506 8.08584284270874,28.652117418730505 C8.08584284270874,28.657792638730506 8.085632072708748,30.824459308730503 8.08521053270874,35.152117418730505 L26.08496618270874,35.152117418730505 L26.08496618270874,36.152117418730505 L8.08511312270874,36.152117418730505 L8.084966182708737,37.6604484187305 C8.084966182708737,38.48887551873051 8.75653906270874,39.1604484187305 9.58496618270874,39.1604484187305 L15.493918582708746,39.1604484187305 C15.553524482708738,39.1493641187305 15.615421582708741,39.1490259187305 15.67656618270874,39.1604484187305 L18.49336608270874,39.1604484187305 C18.55451078270874,39.1490259187305 18.616407882708742,39.1493641187305 18.676013782708736,39.1604484187305 L18.676013782708736,39.1604484187305 zM16.58496618270874,38.152117418730505 C16.308823782708743,38.152117418730505 16.08496618270874,37.9282598187305 16.08496618270874,37.652117418730505 C16.08496618270874,37.37597501873051 16.308823782708743,37.152117418730505 16.58496618270874,37.152117418730505 L17.58496618270874,37.152117418730505 C17.86110858270874,37.152117418730505 18.08496618270874,37.37597501873051 18.08496618270874,37.652117418730505 C18.08496618270874,37.9282598187305 17.86110858270874,38.152117418730505 17.58496618270874,38.152117418730505 L16.58496618270874,38.152117418730505 z" class="" id="svg_11"/><g class="" id="svg_2"><path fill="" fill-opacity="1" stroke="#000000" stroke-opacity="1" stroke-width="1" stroke-dasharray="none" stroke-linejoin="miter" stroke-linecap="butt" stroke-dashoffset="" fill-rule="nonzero" opacity="1" marker-start="" marker-mid="" marker-end="" d="M17,26.500000000000007 L16.900000000000006,21.000000000000007 " id="svg_12" class=""/><path fill="" fill-opacity="1" stroke="#000000" stroke-opacity="1" stroke-width="1" stroke-dasharray="none" stroke-linejoin="miter" stroke-linecap="butt" stroke-dashoffset="" fill-rule="nonzero" opacity="1" marker-start="" marker-mid="" marker-end="" d="M36.90000036358833,21.30000019073487 L36.80000036358834,15.80000019073487 " class="" id="svg_18"/><path fill="" fill-opacity="1" stroke="#000000" stroke-opacity="1" stroke-width="1" stroke-dasharray="none" stroke-linejoin="miter" stroke-linecap="butt" stroke-dashoffset="" fill-rule="nonzero" opacity="1" marker-start="" marker-mid="" marker-end="" d="M56.099998474121094,26.600000023841865 L55.9999984741211,21.100000023841865 " class="" id="svg_17"/><path fill="" fill-opacity="1" stroke="#000000" stroke-opacity="1" stroke-width="1" stroke-dasharray="none" stroke-linejoin="miter" stroke-linecap="butt" stroke-dashoffset="" fill-rule="nonzero" opacity="1" marker-start="" marker-mid="" marker-end="" d="M16.399999992549425,21.000000000000007 L56.49999999254942,21.200000000000003 " id="svg_14" class=""/></g><g class="" id="svg_19"><path fill="" fill-opacity="1" stroke="#000000" stroke-opacity="1" stroke-width="1" stroke-dasharray="none" stroke-linejoin="miter" stroke-linecap="butt" stroke-dashoffset="" fill-rule="nonzero" opacity="1" marker-start="" marker-mid="" marker-end="" d="M0.5117215072127692,52.600000381469734 L0.4264347230407175,47.100000381469734 " id="svg_20" class=""/><path fill="" fill-opacity="1" stroke="#000000" stroke-opacity="1" stroke-width="1" stroke-dasharray="none" stroke-linejoin="miter" stroke-linecap="butt" stroke-dashoffset="" fill-rule="nonzero" opacity="1" marker-start="" marker-mid="" marker-end="" d="M17.48379186754513,47.4000005722046 L17.398505083373074,41.9000005722046 " class="" id="svg_21"/><path fill="" fill-opacity="1" stroke="#000000" stroke-opacity="1" stroke-width="1" stroke-dasharray="none" stroke-linejoin="miter" stroke-linecap="butt" stroke-dashoffset="" fill-rule="nonzero" opacity="1" marker-start="" marker-mid="" marker-end="" d="M33.85885281711444,52.70000040531159 L33.773566032942384,47.20000040531159 " class="" id="svg_22"/><path fill="" fill-opacity="1" stroke="#000000" stroke-opacity="1" stroke-width="1" stroke-dasharray="none" stroke-linejoin="miter" stroke-linecap="butt" stroke-dashoffset="" fill-rule="nonzero" opacity="1" marker-start="" marker-mid="" marker-end="" d="M7.958260646034887e-7,47.100000381469734 L34.20000124882136,47.30000038146973 " id="svg_23" class=""/></g><g class="" id="svg_24"><path fill="" fill-opacity="1" stroke="#000000" stroke-opacity="1" stroke-width="1" stroke-dasharray="none" stroke-linejoin="miter" stroke-linecap="butt" stroke-dashoffset="" fill-rule="nonzero" opacity="1" marker-start="" marker-mid="" marker-end="" d="M40.77281761563313,53.10000035911799 L40.69401461875928,47.60000035911799 " id="svg_25" class=""/><path fill="" fill-opacity="1" stroke="#000000" stroke-opacity="1" stroke-width="1" stroke-dasharray="none" stroke-linejoin="miter" stroke-linecap="butt" stroke-dashoffset="" fill-rule="nonzero" opacity="1" marker-start="" marker-mid="" marker-end="" d="M56.454614280048894,47.900000549852855 L56.37581128317504,42.400000549852855 " class="" id="svg_26"/><path fill="" fill-opacity="1" stroke="#000000" stroke-opacity="1" stroke-width="1" stroke-dasharray="none" stroke-linejoin="miter" stroke-linecap="butt" stroke-dashoffset="" fill-rule="nonzero" opacity="1" marker-start="" marker-mid="" marker-end="" d="M71.58478819087236,53.20000038295985 L71.5059851939985,47.70000038295985 " class="" id="svg_27"/><path fill="" fill-opacity="1" stroke="#000000" stroke-opacity="1" stroke-width="1" stroke-dasharray="none" stroke-linejoin="miter" stroke-linecap="butt" stroke-dashoffset="" fill-rule="nonzero" opacity="1" marker-start="" marker-mid="" marker-end="" d="M40.29999962851872,47.60000035911799 L71.90000137493482,47.80000035911799 " id="svg_28" class=""/></g></g></svg>