<svg xmlns="http://www.w3.org/2000/svg" id="canvas" viewBox="504.103 325.966 388.519 177.458"><path d="M 574.39,338.56 C 574.33 337.46, 573.73 336.39, 572.55 334.99 C 571.38 333.59, 570.30 332.66, 568.52 331.56 C 566.75 330.47, 565.64 330.03, 563.68 329.51 C 561.72 328.99, 560.65 328.95, 558.72 328.97 C 556.79 328.98, 555.95 329.10, 554.02 329.57 C 552.09 330.04, 550.94 330.32, 549.07 331.33 C 547.20 332.34, 546.38 333.03, 544.66 334.62 C 542.94 336.21, 542.01 337.04, 540.48 339.29 C 538.94 341.53, 538.16 342.91, 537.00 345.85 C 535.84 348.79, 535.42 350.35, 534.67 353.99 C 533.92 357.63, 533.62 359.69, 533.24 364.05 C 532.85 368.41, 532.84 370.87, 532.76 375.78 C 532.67 380.70, 532.63 383.35, 532.81 388.64 C 532.99 393.93, 533.17 396.78, 533.67 402.25 C 534.18 407.72, 534.61 410.49, 535.34 416.01 C 536.06 421.53, 536.44 424.40, 537.31 429.86 C 538.18 435.32, 538.58 438.06, 539.70 443.29 C 540.82 448.52, 541.62 451.21, 542.91 456.01 C 544.20 460.82, 544.94 463.01, 546.14 467.33 C 547.34 471.64, 547.93 473.70, 548.92 477.59 C 549.90 481.48, 550.32 483.50, 551.05 486.78 C 551.79 490.05, 551.99 491.69, 552.61 493.95 C 553.23 496.21, 553.60 496.91, 554.15 498.08 C 554.71 499.25, 555.05 499.39, 555.40 499.81 C 555.74 500.22, 555.66 500.04, 555.88 500.15 C 556.11 500.27, 556.21 500.50, 556.52 500.40 C 556.83 500.30, 557.15 500.29, 557.42 499.66 C 557.69 499.03, 557.88 498.61, 557.86 497.24 C 557.84 495.87, 557.80 495.13, 557.31 492.81 C 556.82 490.49, 556.35 488.90, 555.39 485.65 C 554.43 482.40, 553.72 480.42, 552.51 476.57 C 551.31 472.72, 550.67 470.66, 549.35 466.39 C 548.03 462.11, 547.26 459.93, 545.90 455.18 C 544.55 450.44, 543.74 447.82, 542.59 442.66 C 541.44 437.50, 541.03 434.81, 540.15 429.40 C 539.28 424.00, 538.91 421.12, 538.20 415.64 C 537.50 410.16, 537.08 407.41, 536.64 401.99 C 536.20 396.58, 536.06 393.78, 535.99 388.56 C 535.91 383.34, 536.02 380.71, 536.26 375.90 C 536.50 371.09, 536.61 368.65, 537.19 364.50 C 537.77 360.34, 538.20 358.40, 539.18 355.12 C 540.16 351.83, 540.86 350.58, 542.08 348.07 C 543.30 345.56, 544.00 344.45, 545.28 342.57 C 546.57 340.68, 547.21 339.93, 548.50 338.66 C 549.79 337.40, 550.34 337.01, 551.74 336.24 C 553.14 335.47, 554.08 335.28, 555.48 334.84 C 556.88 334.39, 557.46 334.00, 558.74 333.99 C 560.02 333.99, 560.59 334.23, 561.87 334.82 C 563.14 335.40, 563.68 335.99, 565.11 336.93 C 566.55 337.87, 567.49 338.81, 569.03 339.52 C 570.58 340.23, 571.76 340.68, 572.83 340.49 C 573.90 340.30, 574.44 339.66, 574.39 338.56" style="stroke: black; fill: black;"/><path d="M 508.26,438.90 C 509.31 439.20, 510.23 438.88, 512.62 438.39 C 515.01 437.90, 516.44 437.46, 520.20 436.44 C 523.97 435.43, 526.51 434.47, 531.45 433.32 C 536.38 432.17, 539.18 431.73, 544.86 430.68 C 550.54 429.64, 553.79 429.08, 559.83 428.08 C 565.87 427.09, 569.55 426.55, 575.06 425.70 C 580.56 424.86, 583.24 424.56, 587.36 423.86 C 591.48 423.15, 594.05 422.91, 595.66 422.19 C 597.26 421.47, 597.14 420.52, 595.39 420.25 C 593.65 419.99, 591.08 420.35, 586.92 420.85 C 582.76 421.35, 580.10 421.86, 574.59 422.74 C 569.08 423.63, 565.42 424.28, 559.37 425.27 C 553.32 426.25, 550.08 426.79, 544.35 427.67 C 538.62 428.56, 535.76 428.85, 530.72 429.71 C 525.68 430.57, 523.04 431.14, 519.13 431.96 C 515.22 432.77, 513.54 432.79, 511.18 433.77 C 508.83 434.75, 507.95 435.85, 507.37 436.87 C 506.78 437.90, 507.21 438.59, 508.26 438.90" style="stroke: black; fill: black;"/><path d="M 617.84,360.73 C 617.40 361.53, 617.59 362.28, 617.72 363.92 C 617.86 365.56, 617.88 366.44, 618.53 368.92 C 619.17 371.39, 620.00 372.92, 620.95 376.28 C 621.91 379.64, 622.47 381.55, 623.31 385.71 C 624.15 389.86, 624.40 392.25, 625.13 397.06 C 625.87 401.87, 626.31 404.61, 626.99 409.77 C 627.67 414.93, 627.88 417.70, 628.54 422.84 C 629.19 427.98, 629.54 430.51, 630.28 435.46 C 631.02 440.41, 631.40 442.96, 632.23 447.59 C 633.06 452.22, 633.63 454.64, 634.43 458.61 C 635.22 462.58, 635.44 464.58, 636.23 467.45 C 637.02 470.31, 637.62 471.42, 638.36 472.94 C 639.09 474.45, 639.44 474.59, 639.91 475.04 C 640.38 475.49, 640.50 475.15, 640.71 475.17 C 640.92 475.18, 640.78 475.21, 640.96 475.11 C 641.15 475.02, 641.39 475.37, 641.65 474.71 C 641.92 474.06, 642.44 473.56, 642.28 471.85 C 642.12 470.13, 641.68 468.97, 640.85 466.14 C 640.03 463.32, 639.23 461.56, 638.16 457.72 C 637.10 453.88, 636.49 451.50, 635.53 446.95 C 634.58 442.40, 634.17 439.88, 633.39 434.98 C 632.61 430.08, 632.27 427.57, 631.64 422.45 C 631.01 417.33, 630.82 414.54, 630.22 409.37 C 629.62 404.20, 629.21 401.45, 628.64 396.59 C 628.07 391.72, 627.91 389.34, 627.39 385.05 C 626.87 380.77, 626.61 378.73, 626.05 375.16 C 625.49 371.60, 625.36 369.78, 624.60 367.22 C 623.84 364.66, 623.18 363.82, 622.25 362.36 C 621.32 360.90, 620.83 360.24, 619.95 359.91 C 619.07 359.59, 618.29 359.93, 617.84 360.73" style="stroke: black; fill: black;"/><path d="M 702.58,424.00 C 702.63 422.92, 702.05 421.70, 700.91 420.55 C 699.76 419.40, 698.78 418.69, 696.87 418.24 C 694.96 417.79, 693.46 417.76, 691.34 418.31 C 689.23 418.86, 688.19 419.63, 686.28 420.99 C 684.36 422.35, 683.50 423.29, 681.77 425.10 C 680.05 426.92, 679.31 427.96, 677.64 430.07 C 675.98 432.18, 674.83 433.20, 673.44 435.67 C 672.05 438.13, 671.54 439.68, 670.67 442.42 C 669.81 445.16, 669.39 446.57, 669.11 449.37 C 668.83 452.17, 668.71 453.63, 669.26 456.43 C 669.80 459.23, 670.32 460.83, 671.82 463.38 C 673.32 465.94, 674.32 467.32, 676.76 469.23 C 679.19 471.14, 680.80 471.85, 683.99 472.93 C 687.17 474.01, 689.01 474.24, 692.68 474.62 C 696.35 474.99, 698.38 475.07, 702.34 474.79 C 706.31 474.51, 708.49 474.15, 712.50 473.20 C 716.51 472.26, 718.72 471.56, 722.38 470.09 C 726.04 468.61, 727.67 467.75, 730.80 465.84 C 733.94 463.92, 735.54 462.90, 738.07 460.51 C 740.59 458.12, 742.00 456.74, 743.42 453.90 C 744.84 451.06, 745.08 449.37, 745.15 446.31 C 745.22 443.26, 744.99 441.53, 743.77 438.64 C 742.55 435.75, 741.31 434.39, 739.04 431.88 C 736.78 429.36, 735.20 428.17, 732.43 426.06 C 729.66 423.94, 728.06 423.07, 725.19 421.29 C 722.32 419.51, 720.74 418.39, 718.07 417.16 C 715.41 415.93, 713.99 415.59, 711.87 415.14 C 709.76 414.69, 708.81 414.80, 707.51 414.92 C 706.20 415.05, 705.79 415.35, 705.35 415.79 C 704.91 416.22, 704.98 416.63, 705.29 417.10 C 705.60 417.57, 705.90 417.58, 706.91 418.14 C 707.91 418.70, 708.56 419.08, 710.32 419.90 C 712.07 420.72, 713.25 421.09, 715.70 422.24 C 718.15 423.40, 719.84 424.12, 722.58 425.68 C 725.31 427.24, 726.85 428.12, 729.37 430.06 C 731.88 432.00, 733.25 433.22, 735.17 435.36 C 737.09 437.50, 737.96 438.58, 738.97 440.76 C 739.98 442.93, 740.24 444.05, 740.22 446.23 C 740.20 448.41, 739.97 449.46, 738.89 451.65 C 737.81 453.84, 736.89 455.07, 734.81 457.18 C 732.74 459.28, 731.31 460.37, 728.51 462.17 C 725.71 463.98, 724.20 464.83, 720.81 466.21 C 717.42 467.60, 715.30 468.27, 711.56 469.11 C 707.81 469.96, 705.75 470.27, 702.09 470.43 C 698.43 470.59, 696.53 470.40, 693.25 469.93 C 689.98 469.46, 688.34 469.07, 685.72 468.08 C 683.10 467.08, 681.99 466.45, 680.15 464.96 C 678.31 463.47, 677.64 462.53, 676.52 460.62 C 675.39 458.72, 674.92 457.55, 674.52 455.43 C 674.12 453.30, 674.21 452.26, 674.52 450.01 C 674.84 447.77, 675.33 446.49, 676.11 444.20 C 676.90 441.91, 677.21 440.64, 678.45 438.57 C 679.69 436.50, 680.75 435.70, 682.30 433.84 C 683.85 431.98, 684.68 430.88, 686.19 429.25 C 687.70 427.63, 688.48 426.83, 689.84 425.72 C 691.20 424.61, 691.82 424.16, 692.98 423.71 C 694.14 423.27, 694.71 423.30, 695.65 423.51 C 696.59 423.72, 696.68 424.29, 697.68 424.78 C 698.68 425.26, 699.68 426.09, 700.66 425.93 C 701.64 425.78, 702.53 425.07, 702.58 424.00" style="stroke: black; fill: black;"/><path d="M 772.48,414.00 C 771.75 413.97, 771.22 413.95, 770.44 414.80 C 769.66 415.65, 769.01 416.48, 768.57 418.24 C 768.13 420.01, 768.20 421.16, 768.23 423.63 C 768.26 426.10, 768.22 427.60, 768.74 430.60 C 769.26 433.61, 769.99 435.41, 770.84 438.66 C 771.69 441.90, 772.00 443.53, 773.00 446.85 C 773.99 450.16, 774.47 451.95, 775.81 455.22 C 777.15 458.49, 778.07 460.14, 779.68 463.21 C 781.29 466.27, 782.12 467.85, 783.85 470.52 C 785.59 473.19, 786.47 474.47, 788.34 476.54 C 790.21 478.62, 791.24 479.60, 793.21 480.89 C 795.18 482.18, 796.23 482.76, 798.19 483.01 C 800.16 483.26, 801.24 483.01, 803.03 482.15 C 804.83 481.30, 805.61 480.53, 807.15 478.75 C 808.68 476.96, 809.50 475.80, 810.70 473.21 C 811.91 470.62, 812.27 468.91, 813.17 465.80 C 814.07 462.70, 814.32 460.88, 815.21 457.68 C 816.10 454.49, 816.72 452.81, 817.62 449.83 C 818.52 446.86, 819.19 445.28, 819.72 442.79 C 820.24 440.31, 820.29 438.82, 820.24 437.40 C 820.19 435.97, 819.72 435.63, 819.47 435.66 C 819.22 435.68, 818.93 436.13, 818.99 437.51 C 819.05 438.88, 818.88 440.22, 819.76 442.53 C 820.64 444.84, 821.77 446.29, 823.37 449.06 C 824.98 451.82, 825.81 453.41, 827.80 456.36 C 829.79 459.31, 830.87 460.94, 833.31 463.81 C 835.76 466.69, 837.21 468.13, 840.02 470.75 C 842.84 473.37, 844.41 474.70, 847.40 476.91 C 850.39 479.12, 852.00 480.13, 855.00 481.80 C 857.99 483.48, 859.43 484.33, 862.38 485.27 C 865.33 486.21, 866.98 486.47, 869.74 486.49 C 872.50 486.51, 873.78 486.28, 876.16 485.37 C 878.54 484.46, 879.75 483.75, 881.64 481.95 C 883.52 480.16, 884.33 478.96, 885.59 476.41 C 886.86 473.86, 887.18 472.35, 887.95 469.21 C 888.72 466.08, 889.16 464.30, 889.45 460.72 C 889.75 457.14, 889.60 455.10, 889.44 451.32 C 889.27 447.54, 889.03 445.59, 888.61 441.81 C 888.20 438.03, 888.01 436.06, 887.37 432.41 C 886.74 428.77, 886.25 426.96, 885.43 423.58 C 884.61 420.20, 884.20 418.47, 883.25 415.53 C 882.31 412.59, 881.70 411.09, 880.72 408.89 C 879.75 406.68, 879.24 405.29, 878.38 404.50 C 877.51 403.72, 876.81 403.83, 876.39 404.97 C 875.97 406.11, 875.88 407.78, 876.29 410.21 C 876.69 412.64, 877.47 414.18, 878.42 417.09 C 879.37 420.00, 880.10 421.53, 881.03 424.75 C 881.96 427.97, 882.43 429.68, 883.08 433.19 C 883.73 436.69, 883.91 438.61, 884.28 442.26 C 884.64 445.92, 884.84 447.87, 884.90 451.46 C 884.95 455.04, 885.00 456.92, 884.55 460.19 C 884.11 463.45, 883.46 465.03, 882.66 467.80 C 881.85 470.57, 881.45 471.91, 880.53 474.04 C 879.60 476.17, 879.25 477.06, 878.04 478.44 C 876.83 479.81, 876.10 480.29, 874.47 480.90 C 872.83 481.52, 871.98 481.62, 869.87 481.51 C 867.76 481.41, 866.44 481.14, 863.90 480.37 C 861.37 479.60, 859.97 479.09, 857.19 477.68 C 854.41 476.27, 852.85 475.35, 850.01 473.32 C 847.17 471.30, 845.65 470.03, 843.01 467.55 C 840.37 465.08, 838.99 463.71, 836.80 460.95 C 834.62 458.19, 833.67 456.68, 832.08 453.75 C 830.49 450.82, 830.06 449.11, 828.84 446.29 C 827.63 443.48, 827.19 441.87, 826.00 439.67 C 824.82 437.48, 824.27 436.46, 822.92 435.32 C 821.57 434.18, 820.60 433.81, 819.27 433.96 C 817.93 434.11, 817.25 434.60, 816.25 436.08 C 815.24 437.57, 814.98 438.93, 814.23 441.38 C 813.49 443.84, 813.32 445.39, 812.50 448.36 C 811.69 451.33, 811.12 453.08, 810.17 456.21 C 809.22 459.35, 808.80 461.17, 807.75 464.03 C 806.70 466.90, 805.96 468.25, 804.92 470.55 C 803.88 472.85, 803.36 473.93, 802.53 475.53 C 801.71 477.13, 801.50 477.85, 800.79 478.55 C 800.08 479.25, 799.90 479.36, 798.98 479.04 C 798.07 478.72, 797.54 478.15, 796.20 476.94 C 794.87 475.73, 793.95 474.84, 792.33 472.99 C 790.70 471.14, 789.75 470.10, 788.06 467.69 C 786.38 465.28, 785.48 463.78, 783.90 460.93 C 782.31 458.08, 781.39 456.53, 780.15 453.46 C 778.91 450.38, 778.51 448.73, 777.69 445.54 C 776.88 442.35, 776.62 440.66, 776.08 437.51 C 775.53 434.36, 775.20 432.57, 774.97 429.79 C 774.73 427.01, 774.89 425.76, 774.92 423.62 C 774.94 421.48, 775.11 420.56, 775.10 419.10 C 775.08 417.64, 775.04 417.13, 774.83 416.30 C 774.63 415.46, 774.54 415.38, 774.07 414.92 C 773.60 414.46, 773.20 414.02, 772.48 414.00" style="stroke: black; fill: black;"/></svg>